<svg width="221.57mm" height="170.82mm" version="1.1" viewBox="0 0 221.57 170.82" xmlns="http://www.w3.org/2000/svg">
 <g transform="translate(-45.029 -74.542)">
  <g transform="translate(45.029 74.542)">
   <g transform="matrix(.35278 0 0 .35278 -495.78 -97.094)">
    <g fill="#f2f2f2" font-family="Lato" font-size-adjust=".21053">
     <text x="931.41571" y="-313.11429" font-size="55px" text-anchor="middle">
      <tspan x="1022.9157">break</tspan>
     </text>
     <text x="518.4057" y="-313.27429" font-size="55px" text-anchor="middle">
      <tspan x="600.4057">work</tspan>
     </text>
     <text x="701.92572" y="-464.31427" font-size="60px">
      <tspan x="701.92572">4 loops</tspan>
     </text>
    </g>
    <g stroke="#e6e6e6" stroke-linecap="square" stroke-linejoin="round">
     <rect x="500.43" y="-5.6154" width="21.98" height="21.98" fill="#e6e6e6" fill-rule="evenodd" stroke-width="3.0398"/>
     <rect x="547.52" y="4.414" width="171.17" height="1.3373" fill="#e6e6e6" fill-rule="evenodd" stroke-width="4.7884"/>
     <rect x="500.43" y="37.262" width="21.98" height="21.98" fill="none" stroke-width="3.0398"/>
    </g>
    <path d="m504.83 5.4029c2.0959 1.2144 4.1918 3.2579 6.2876 6.4973 1.9629-5.1164 4.5562-9.7286 8.0766-13.599" fill="none" stroke="#6cadc6" stroke-linecap="round" stroke-linejoin="round" stroke-width="4.9104"/>
    <g fill-rule="evenodd">
     <rect x="547.34" y="47.945" width="143.43" height="1.1206" fill="#e6e6e6" stroke="#e6e6e6" stroke-linecap="square" stroke-linejoin="round" stroke-width="4.7884"/>
     <rect x="550.19" y="-61.637" width="114.23" height="4.9301" fill="#ccc" stroke="#ccc" stroke-linejoin="round" stroke-width="3.9904"/>
     <g stroke-linecap="square">
      <ellipse cx="607.3" cy="-56.791" rx="57.234" ry="9.3821" fill="#ccc" stroke="#ccc" stroke-linejoin="bevel" stroke-width="3.6818"/>
      <ellipse cx="607.3" cy="-61.164" rx="57.234" ry="9.3821" fill="#e6e6e6" stroke="#e6e6e6" stroke-linejoin="bevel" stroke-width="3.6818"/>
      <rect x="601.24" y="-108.61" width="16.233" height="46.127" fill="#bfbfbf" stroke="#bfbfbf" stroke-linejoin="round" stroke-width="3.5507"/>
      <rect x="501.31" y="-260.19" width="217.58" height="159.65" rx="2.2796" ry="2.5383" fill="#bfbfbf" stroke="#bfbfbf" stroke-linejoin="bevel" stroke-width="4.6551"/>
     </g>
    </g>
    <rect x="515.4" y="-249.05" width="188.01" height="134.58" rx="1.2283e-5" ry="1.2283e-5" fill="#333" stroke="#333" stroke-linecap="square" stroke-linejoin="bevel" stroke-width="4.6551"/>
    <g fill-rule="evenodd" stroke-linecap="square">
     <path d="m501.65-259.94h215.51v154.26h-215.51-2e-5v-154.26l1e-5 -1e-5h1e-5m11.163 8.8796h193.18v136.03h-193.18v-136.03" fill="#e6e6e6" stroke="#e6e6e6" stroke-linejoin="bevel" stroke-width="4.6551"/>
     <rect x="600.63" y="-109.47" width="13.837" height="47.978" fill="#e6e6e6" stroke="#e6e6e6" stroke-miterlimit="1.92" stroke-width="3.4192"/>
     <g stroke-linejoin="round">
      <g stroke-width="4.6551">
       <rect x="525.71" y="-238.64" width="96.204" height="2.2413" fill="#a64848" stroke="#a64848"/>
       <rect x="525.81" y="-226.54" width="64.892" height="2.0313" fill="#307679" stroke="#4c7e7e"/>
       <rect x="526.06" y="-214.74" width="87.916" height="2.4801" fill="#815681" stroke="#7c547c"/>
      </g>
      <g stroke-width="5.2092">
       <rect x="526.61" y="-202.32" width="120.47" height="2.6433" fill="#a64848" stroke="#bd6e6e"/>
       <rect x="526.53" y="-177.72" width="81.26" height="2.6057" fill="#307679" stroke="#4c7e7e"/>
       <rect x="526.33" y="-190.32" width="110.09" height="2.7097" fill="#815681" stroke="#7c547c"/>
      </g>
      <rect x="525.49" y="-166.15" width="76.801" height="2.2413" fill="#a64848" stroke="#a64848" stroke-width="4.6551"/>
     </g>
    </g>
    <g stroke-linejoin="bevel">
     <ellipse cx="1026.6" cy="35.223" rx="64.589" ry="24.623" fill="#e6e6e6" stroke="#bfbfbf" stroke-linecap="square" stroke-width="9.6597"/>
     <path d="m1090.8-107.47c0.3196 65.77 0.5496 112.75 0.6864 140.93-7.4724 16.493-29.075 24.971-65.276 24.662-36.201-0.31015-57.536-7.8894-64.246-24.662v-140.93" fill="#e6e6e6" fill-rule="evenodd" stroke="#e6e6e6" stroke-linecap="square" stroke-width="8.2142"/>
     <path transform="matrix(-.007349 -.99997 .99999 -.0054728 0 0)" d="m54.688 1091.6a34.473 24.832 0 0 1-33.538 24.823 34.473 24.832 0 0 1-35.357-23.477" fill="none" stroke="#ccc" stroke-linecap="round" stroke-width="16.777"/>
     <path transform="matrix(-.01242 -.99992 .99999 -.0054728 0 0)" d="m57.68 1092a37.465 27.994 0 0 1-36.449 27.984 37.465 27.994 0 0 1-38.426-26.466" fill="none" stroke="#e6e6e6" stroke-linecap="square" stroke-width="16.777"/>
     <path d="m1090.3-111.26c0-0.12428-0.015-0.33137-0.03-0.6214-0.041-0.28765-0.071-0.49312-0.089-0.61639-0.03-0.12228-0.08-0.32612-0.1503-0.61139-0.098-0.28239-0.1667-0.48409-0.2093-0.60511-0.053-0.12028-0.1415-0.32073-0.2656-0.60136l-0.3219-0.59385-0.3784-0.58883-0.4335-0.58256-0.4873-0.57505-0.5399-0.56879-0.5921-0.56127-0.6445-0.55375-0.6946-0.54624-0.7433-0.53871-0.7932-0.52995-0.8408-0.52118-0.8868-0.51116-0.9333-0.50363-0.9793-0.49362-1.0218-0.48485-1.0668-0.47357-1.1094-0.46354-1.1505-0.45353-1.1904-0.44225-1.2318-0.43223-1.2704-0.41969-1.3079-0.40843-1.3454-0.39715-1.3815-0.38462-1.4167-0.37083-1.4528-0.35957-1.4853-0.34703-1.5178-0.332-1.5502-0.31947-1.5815-0.30569-1.6115-0.29191-1.6402-0.27688-1.6702-0.26309-1.6964-0.24681-1.7227-0.23303-1.7488-0.21674-1.7739-0.20045-1.7988-0.18542-1.8201-0.16788-1.8438-0.15285-1.8638-0.1353-1.885-0.11777-1.9051-0.10023-1.9225-0.0839-1.9412-0.0651-1.9575-0.0464-1.9737-0.0288-1.99-9e-3 -1.9887 9e-3 -1.9737 0.0288-1.9576 0.0464-1.9412 0.0651-1.9238 0.0839-1.9038 0.10023-1.885 0.11777-1.8651 0.1353-1.8425 0.15285-1.8214 0.16788-1.7975 0.18542-1.7739 0.20045-1.7489 0.21674-1.7238 0.23303-1.6965 0.24681-1.6689 0.26309-1.6402 0.27688-1.6114 0.29191-1.5816 0.30569-1.5501 0.31947-1.5191 0.332-1.4854 0.34703-1.4515 0.35957-1.4166 0.37083-1.3829 0.38462-1.3454 0.39715-1.3078 0.40843-1.2705 0.41969-1.2304 0.43223-1.1918 0.44225-1.1505 0.45353-1.108 0.46354-1.0668 0.47357-1.0231 0.48485-0.97812 0.49362-0.93315 0.50363-0.88818 0.51116-0.8407 0.52118-0.79199 0.52995-0.74452 0.53871-0.69331 0.54624-0.64459 0.55375-0.59211 0.56127-0.54092 0.56879-0.48717 0.57505-0.43223 0.58256-0.37851 0.58883-0.32229 0.59385-0.26608 0.60136-0.20861 0.60511-0.14991 0.61139-0.0899 0.61639-0.0312 0.6214 0.0312 0.62141 0.0899 0.61639 0.14991 0.61138 0.20861 0.60637 0.26608 0.60011 0.32229 0.5951 0.37851 0.58757 0.43223 0.58257 0.48717 0.5763 0.54092 0.56754 0.59211 0.56252 0.64459 0.55375 0.69331 0.54624 0.74452 0.53746 0.79199 0.52995 0.8407 0.52118 0.88818 0.5124 0.93315 0.50364 0.97812 0.49362 1.0231 0.48359 1.0668 0.47357 1.108 0.4648 1.1505 0.45353 1.1918 0.44225 1.2304 0.43098 1.2705 0.42095 1.3078 0.40842 1.3454 0.3959 1.3829 0.38462 1.4166 0.37209 1.4515 0.35956 1.4854 0.34578 1.5191 0.33325 1.5501 0.31947 1.5816 0.30569 1.6114 0.29066 1.6402 0.27688 1.6689 0.2631 1.6965 0.24681 1.7238 0.23303 1.7489 0.21674 1.7739 0.20045 1.7975 0.18542 1.8214 0.16913 1.8425 0.15159 1.8651 0.13531 1.885 0.11777 1.9038 0.10148 1.9238 0.08269 1.9412 0.06515 1.9576 0.04635 1.9737 0.02882 1.9887 0.0088 1.99-0.0088 1.9737-0.02882 1.9575-0.04635 1.9412-0.06515 1.9225-0.08269 1.9051-0.10148 1.885-0.11777 1.8638-0.13531 1.8438-0.15159 1.8201-0.16913 1.7988-0.18542 1.7739-0.20045 1.7488-0.21674 1.7227-0.23303 1.6964-0.24681 1.6702-0.2631 1.6402-0.27688 1.6115-0.29066 1.5815-0.30569 1.5502-0.31947 1.5178-0.33325 1.4853-0.34578 1.4528-0.35956 1.4167-0.37209 1.3815-0.38462 1.3454-0.3959 1.3079-0.40842 1.2704-0.42095 1.2318-0.43098 1.1904-0.44225 1.1505-0.45353 1.1094-0.4648 1.0668-0.47357 1.0218-0.48359 0.9793-0.49362c0.4355-0.23503 0.7466-0.40291 0.9333-0.50364 0.1774-0.10248 0.4729-0.27324 0.8868-0.5124 0.3924-0.24318 0.6726-0.41695 0.8408-0.52118 0.1586-0.10599 0.423-0.28264 0.7932-0.52995 0.3469-0.25082 0.5946-0.42997 0.7433-0.53746 0.1389-0.10925 0.3704-0.29129 0.6946-0.54624 0.3008-0.25846 0.5156-0.443 0.6445-0.55375 0.1184-0.11251 0.3157-0.30005 0.5921-0.56252 0.2518-0.26485 0.4317-0.45403 0.5399-0.56754 0.098-0.11526 0.2593-0.30732 0.4873-0.5763 0.087-0.11651 0.2305-0.3107 0.4335-0.58257 0.1766-0.27424 0.3019-0.47006 0.3784-0.58757 0.064-0.11902 0.1716-0.31735 0.3219-0.5951 0.1241-0.28001 0.213-0.48008 0.2656-0.60011 0.043-0.12127 0.1115-0.32335 0.2093-0.60637 0.03-0.12227 0.08-0.32611 0.1503-0.61138 0.041-0.28765 0.071-0.49311 0.089-0.61639 0.01-0.12428 0.016-0.33138 0.03-0.62141z" fill="#333" fill-rule="evenodd" stroke="#bfbfbf" stroke-linecap="square" stroke-width="9.6217"/>
     <path d="m1010.7-102.67a49.537 9.3207 0 0 1-31.247-5.2853 49.537 9.3207 0 0 1 1.5699-7.9002" fill="none" stroke="#d9d9d9" stroke-dasharray="19.5383962, 9.7691981, 4.88459905, 9.7691981, 4.88459905, 9.7691981" stroke-linecap="round" stroke-width="4.8846"/>
    </g>
    <g fill="#e6e6e6" fill-rule="evenodd" stroke-opacity="0">
     <path d="m1027-283.71c5.6497 12.903 7.711 22.56 6.1841 28.974-2.2904 9.6197-5.0389 8.4745-8.2455 17.178-2.1376 5.8024-4.1227 11.07-5.955 15.804-3.97-12.368-5.1534-21.072-3.5501-26.111 2.4543-7.7135 4.7371-7.7876 7.9019-16.033 2.4175-6.2981 2.4049-6.9857 3.6646-19.812z"/>
     <path d="m1032.2-203.09c6.0846 10.695 13.474 20.386 13.169 29.09-0.2864 8.1628-4.6004 13.432-8.3105 20.388-3.7102 6.9556-2.98 15.934-3.644 22.026-8.3682-10.425-12.176-22.073-10.608-28.342 1.5673-6.2697 4.0814-10.379 7.288-18.625 3.2065-8.2454 1.7619-12.283 2.1055-24.536z"/>
     <path d="m1008.6-256.05c-5.0215 13.022-13.275 37.386-10.907 46.434 2.3732 9.0656 6.767 13.473 10.879 21.415 4.1049 7.9282 2.9973 22.569 3.0234 30.216 10.031-12.273 16.444-27.605 14.9-37.25-1.1617-7.2564-9.6888-16.273-13.118-25.589-3.6164-9.8231-4.0639-20.629-4.7777-35.225z"/>
    </g>
    <path d="m520.53-391.27v-31.124m0-0.5059h597.4m0.204 31.885v-31.124" fill="none" stroke="#e6e6e6" stroke-linecap="square" stroke-miterlimit="2" stroke-width="6.48"/>
   </g>
   <g fill="none" stroke="#e6e6e6">
    <rect x="-348.62" y="36.12" width="328.77" height="133.82" ry="4.9285" stroke-linejoin="round" stroke-width="1.7607"/>
    <path d="m-196.47 94.477v23.669m-11.555-11.866h23.608" stroke-linecap="round" stroke-miterlimit="1.92" stroke-width="1.9318"/>
    <path d="m12.535 94.477v23.669m-11.555-11.866h23.608" stroke-linecap="round" stroke-miterlimit="1.92" stroke-width="1.9318"/>
    <rect x="44.566" y="35.886" width="176.36" height="134.29" ry="4.9458" stroke-linejoin="round" stroke-width="1.2918"/>
   </g>
   <g transform="matrix(.35278 0 0 .35278 -61.965 -286.11)">
    <rect transform="matrix(1.1676 0 0 1.0657 307.17 385.77)" width="182.16" height="45.36" fill="#4c4c4c" fill-rule="evenodd" stroke="#4c4c4c" stroke-linecap="square" stroke-linejoin="bevel" stroke-width="6.48"/>
    <text transform="translate(229.85 222.6)" fill="#f2f2f2" font-family="Lato" font-size="55px" font-size-adjust=".21053" text-anchor="middle">
     <tspan x="167.5">long break</tspan>
    </text>
    <text transform="translate(312.8 71.4)" fill="#f2f2f2" font-family="Lato" font-size="60px" font-size-adjust=".21053">
     <tspan x="0">1 loop</tspan>
    </text>
    <rect transform="matrix(1.1676 0 0 1.3079 308.01 387.12)" width="180.24" height="34.56" fill="none" stroke="#f2f2f2" stroke-linecap="square" stroke-linejoin="round" stroke-width="1.92"/>
    <rect transform="matrix(1.1676 0 0 1.3079 405.23 401.17)" width="84.48" height="12.96" fill="#f2f2f2" fill-rule="evenodd" stroke-opacity="0"/>
    <ellipse transform="matrix(.93475 0 0 1.2852 433.23 429.53)" cx="50.88" cy="10.944" rx="50.88" ry="10.944" fill="#e6e6e6" stroke="#bfbfbf" stroke-linecap="square" stroke-linejoin="bevel" stroke-width="6.48"/>
    <g fill-rule="evenodd" stroke-linecap="square">
     <path transform="matrix(-1.1982 -.11713 -.23876 1.2235 528.59 454.27)" d="m0 0 209.6 8.6532 8.204 104.45-209.78-6.33z" fill="#8c8c8c" stroke="#4c4c4c" stroke-linejoin="bevel" stroke-width="6.48"/>
     <path transform="matrix(-1.1717 -.11454 -.22309 1.1432 522.68 472.51)" d="m0 0 209.6 8.6532 8.204 104.45-209.78-6.33z" fill="#333" stroke="#4c4c4c" stroke-linejoin="bevel" stroke-width="6.48"/>
     <path transform="matrix(-.73242 -.050825 -.19327 .69399 523.15 436.74)" d="m0 18.835c59.163-28.199 112.09-21.827 162.24 0v183.36c-50.621-30.971-104.6-31.862-162.24 0z" fill="#8c8c8c" stroke="#b2b2b2" stroke-linejoin="round" stroke-width="12.96"/>
    </g>
    <path transform="matrix(-.6906 -.047923 -.19327 .69399 402.12 428.36)" d="m0 18.835c59.163-28.199 112.09-21.827 162.24 0v183.36c-50.621-30.971-104.6-31.862-162.24 0z" fill="#8c8c8c" stroke="#b2b2b2" stroke-linecap="square" stroke-linejoin="round" stroke-width="12.96"/>
    <path transform="matrix(-.78824 -.054699 -.20879 .74972 533.4 425.2)" d="m0 18.835c59.163-28.199 112.09-21.827 162.24 0v183.36c-50.621-30.971-104.6-31.862-162.24 0z" fill="#666" fill-rule="evenodd" stroke="#404040" stroke-linecap="square" stroke-linejoin="round" stroke-width="6.48"/>
    <g fill="#e6e6e6" stroke-linecap="square" stroke-linejoin="round" stroke-width="6.48">
     <path transform="matrix(-.74323 -.051576 -.20801 .74689 404.32 417.31)" d="m0 18.835c59.163-28.199 112.09-21.827 162.24 0v183.36c-50.621-30.971-104.6-31.862-162.24 0z" stroke="#404040"/>
     <path transform="matrix(-.78824 -.054699 -.20801 .74689 533.25 429.55)" d="m0 18.835c59.163-28.199 112.09-21.827 162.24 0v183.36c-50.621-30.971-104.6-31.862-162.24 0z" fill-rule="evenodd" stroke="#e6e6e6"/>
     <path transform="matrix(-.74323 -.051576 -.20801 .74689 403 420.53)" d="m0 18.835c59.163-28.199 112.09-21.827 162.24 0v183.36c-50.621-30.971-104.6-31.862-162.24 0z" stroke="#e6e6e6"/>
    </g>
    <g fill-rule="evenodd">
     <path transform="matrix(-1.4172 .16945 .094356 1.3693 400.05 436.13)" d="m0 0 33.417 93.704" fill="#f2f2f2" stroke="#d9d9d9" stroke-linecap="round" stroke-linejoin="bevel" stroke-width="2.88"/>
     <path transform="matrix(1.4611 0 0 1.6367 347.01 424.52)" d="m11.28 85.994c0.4667-0.1779 6.2013-24.337 12.96-46.68 3.8004-12.563 7.9712-25.13 12.512-37.702l7.1277-1.6122c-4.2302 15.78-7.7369 28.165-10.52 37.154-6.8295 22.059-10.518 45.616-9.6 45.36 0.2516 7.8908-0.0215 13.031-0.8191 15.421-0.7977 2.3893-4.0786 6.8023-9.8429 13.237l-1.218-6.218c-1.848 1.078-10.174 3.925-11.88 4.92 7.92-7.47 11.88-12.11 11.88-13.92 0-2.7153 0.4182-5.378-0.6-9.96z" fill="#6cadc6" stroke-miterlimit="1.92" stroke-opacity="0"/>
     <path transform="matrix(1.1676 0 0 1.3079 336.71 337.43)" d="m29.108 6h103.92v18.72h-103.92v-18.72m-29.108-6h158.71v29.932h-158.71v-29.932m1.578 1.469h18.96v26.31h-18.96v-26.31" fill="#d9d9d9" stroke="#d9d9d9" stroke-linecap="square" stroke-linejoin="bevel" stroke-width="6.48"/>
     <path transform="matrix(1.1676 0 0 1.3079 340.93 287.52)" d="m0 0h10.758v29.932h-10.758v-29.932m19.158 0h98.476v29.932h-98.476v-29.932m106.88 0h11.684v29.932h-11.684v-29.932" fill="#4c4c4c" stroke="#4c4c4c" stroke-linecap="square" stroke-linejoin="round" stroke-width="6.24"/>
    </g>
    <path transform="translate(239.08 112.82)" d="m0 31.63v-31.124m0-0.50591h315.64m0.204 31.885v-31.124" fill="none" stroke="#e6e6e6" stroke-linecap="square" stroke-miterlimit="2" stroke-width="6.48"/>
    <path transform="translate(5.3028 352.64)" d="m46.821 0v95.908m-46.821-48.08h95.657" fill="none" stroke="#e6e6e6" stroke-linecap="square" stroke-miterlimit="1.92" stroke-width="8.16"/>
    <flowRoot transform="matrix(.75 0 0 .75 -852.18 -129.03)" fill="#000000" font-family="sans-serif" font-size="40px" letter-spacing="0px" word-spacing="0px" style="line-height:1.25" xml:space="preserve"><flowRegion><rect x="80.812" y="1471.4" width="646.5" height="94.954"/></flowRegion><flowPara/></flowRoot>
   </g>
   <text x="-257.1189" y="97.859688" fill="#e6e6e6" font-family="sans-serif" font-size="15.395px" letter-spacing=".96219px" stroke-width=".24055" text-align="center" text-anchor="middle" word-spacing="0px" style="line-height:1.25" xml:space="preserve"><tspan x="-256.63779" y="97.859688" stroke-width=".24055"><tspan x="-257.1189" y="97.859688" fill="#e6e6e6" font-family="Lato" font-size="15.395px" letter-spacing=".96219px" stroke-width=".24055" text-align="center" text-anchor="middle" style="line-height:1.25">work</tspan></tspan></text>
   <text x="-276.10413" y="114.86131" fill="#000000" font-family="sans-serif" font-size="9.6219px" letter-spacing="0px" stroke-width=".24055" word-spacing="0px" style="line-height:1.25" xml:space="preserve"><tspan x="-276.10413" y="114.86131" stroke-width=".24055"><tspan font-family="Lato" font-size="12.7px">25 minutes</tspan> </tspan></text>
   <g fill="#e6e6e6" font-family="sans-serif" text-anchor="middle" word-spacing="0px">
    <text x="-74.188972" y="98.495125" font-size="15.395px" letter-spacing=".96219px" stroke-width=".24055" text-align="center" style="line-height:1.25" xml:space="preserve"><tspan x="-73.707878" y="98.495125" stroke-width=".24055"><tspan x="-74.188972" y="98.495125" fill="#e6e6e6" font-family="Lato" font-size="15.395px" letter-spacing=".96219px" stroke-width=".24055" text-align="center" text-anchor="middle" style="line-height:1.25">short break</tspan></tspan></text>
    <text x="172.24742" y="98.295845" font-size="15.395px" letter-spacing=".96219px" stroke-width=".24055" text-align="center" style="line-height:1.25" xml:space="preserve"><tspan x="172.72852" y="98.295845" stroke-width=".24055"><tspan x="172.24742" y="98.295845" fill="#e6e6e6" font-family="Lato" font-size="15.395px" letter-spacing=".96219px" stroke-width=".24055" text-align="center" text-anchor="middle" style="line-height:1.25">long break</tspan></tspan></text>
    <text x="-185.42012" y="15.913795" font-size="21.607px" letter-spacing="1.3505px" stroke-width=".33761" text-align="center" style="line-height:1.25" xml:space="preserve"><tspan x="-184.74489" y="15.913795" stroke-width=".33761"><tspan x="-185.42012" y="15.913795" fill="#e6e6e6" font-family="Lato" font-size="21.607px" letter-spacing="1.3505px" stroke-width=".33761" text-align="center" text-anchor="middle" style="line-height:1.25">4 loops</tspan></tspan></text>
    <text x="137.4557" y="15.913795" font-size="21.607px" letter-spacing="1.3505px" stroke-width=".33761" text-align="center" style="line-height:1.25" xml:space="preserve"><tspan x="138.13094" y="15.913795" stroke-width=".33761"><tspan x="137.4557" y="15.913795" fill="#e6e6e6" font-family="Lato" font-size="21.607px" letter-spacing="1.3505px" stroke-width=".33761" text-align="center" text-anchor="middle" style="line-height:1.25">1 loop</tspan></tspan></text>
   </g>
   <text x="-117.61327" y="114.86131" fill="#000000" font-family="sans-serif" font-size="9.6219px" letter-spacing="0px" stroke-width=".24055" word-spacing="0px" style="line-height:1.25" xml:space="preserve"><tspan x="-117.61327" y="114.86131" stroke-width=".24055"><tspan font-family="Lato" font-size="12.7px">5 minutes</tspan> </tspan></text>
   <text x="131.21468" y="114.86131" fill="#000000" font-family="sans-serif" font-size="9.6219px" letter-spacing="0px" stroke-width=".24055" word-spacing="0px" style="line-height:1.25" xml:space="preserve"><tspan x="131.21468" y="114.86131" stroke-width=".24055"><tspan font-family="Lato" font-size="12.7px">15 minutes</tspan> </tspan></text>
   <g stroke-linejoin="bevel">
    <ellipse cx="-150.83" cy="123.14" rx="14.598" ry="5.5649" fill="#e6e6e6" stroke="#bfbfbf" stroke-linecap="square" stroke-width="2.1832"/>
    <path d="m-136.31 90.892c0.0723 14.864 0.12421 25.482 0.15513 31.852-1.6888 3.7276-6.5711 5.6436-14.753 5.5738-8.1817-0.0701-13.003-1.783-14.52-5.5738v-31.852" fill="#e6e6e6" fill-rule="evenodd" stroke="#e6e6e6" stroke-linecap="square" stroke-width="1.8565"/>
    <path transform="matrix(-.007349 -.99997 .99999 -.0054728 0 0)" d="m-100.72-136.97a7.7911 5.6123 0 0 1-7.5798 5.6102 7.7911 5.6123 0 0 1-7.9909-5.3059" fill="none" stroke="#ccc" stroke-linecap="round" stroke-width="3.7918"/>
    <path transform="matrix(-.01242 -.99992 .99999 -.0054728 0 0)" d="m-100.05-137.46a8.4673 6.3269 0 0 1-8.2377 6.3246 8.4673 6.3269 0 0 1-8.6845-5.9815" fill="none" stroke="#e6e6e6" stroke-linecap="square" stroke-width="3.7918"/>
    <path d="m-136.44 90.035c0-0.0281-3e-3 -0.0749-7e-3 -0.14044-0.01-0.065-0.0161-0.11145-0.02-0.13931-7e-3 -0.0276-0.0182-0.0737-0.034-0.13818-0.0221-0.0638-0.0377-0.10941-0.0473-0.13676-0.012-0.0272-0.032-0.0725-0.06-0.1359l-0.0728-0.13422-0.0855-0.13308-0.098-0.13166-0.11014-0.12996-0.122-0.12855-0.13383-0.12686-0.14566-0.12515-0.15699-0.12345-0.16799-0.12175-0.17927-0.11978-0.19002-0.11779-0.20042-0.11552-0.21093-0.11382-0.22133-0.11157-0.23093-0.10958-0.24111-0.10702-0.25074-0.10477-0.26001-0.1025-0.26904-0.1-0.2784-0.0977-0.2871-0.0948-0.2956-0.0923-0.30407-0.0898-0.31223-0.0869-0.32019-0.0838-0.32834-0.0813-0.33569-0.0784-0.34302-0.075-0.35036-0.0722-0.35743-0.0691-0.3642-0.066-0.3707-0.0626-0.37747-0.0595-0.3834-0.0558-0.38934-0.0527-0.39525-0.049-0.40091-0.0453-0.40653-0.0419-0.41136-0.0379-0.41671-0.0345-0.42123-0.0306-0.42602-0.0266-0.43056-0.0227-0.4345-0.019-0.43872-0.0147-0.44241-0.0105-0.44607-7e-3 -0.44975-2e-3 -0.44946 2e-3 -0.44607 7e-3 -0.44243 0.0105-0.43872 0.0147-0.43479 0.019-0.43027 0.0227-0.42603 0.0266-0.42152 0.0306-0.41642 0.0345-0.41164 0.0379-0.40628 0.0419-0.40091 0.0453-0.39526 0.049-0.38958 0.0527-0.38343 0.0558-0.37718 0.0595-0.37069 0.0626-0.36418 0.066-0.35746 0.0691-0.35033 0.0722-0.34333 0.075-0.3357 0.0784-0.32806 0.0813-0.32015 0.0838-0.31254 0.0869-0.30406 0.0898-0.29559 0.0923-0.28713 0.0948-0.27808 0.0977-0.26935 0.1-0.26002 0.1025-0.25042 0.10477-0.24111 0.10702-0.23123 0.10958-0.22106 0.11157-0.21089 0.11382-0.20075 0.11552-0.18999 0.11779-0.17899 0.11978-0.16827 0.12175-0.15669 0.12345-0.14568 0.12515-0.13383 0.12686-0.12225 0.12855-0.1101 0.12996-0.0977 0.13166-0.0856 0.13308-0.0729 0.13422-0.0601 0.1359-0.0472 0.13676-0.0339 0.13818-0.0203 0.13931-7e-3 0.14044 7e-3 0.14044 0.0203 0.13931 0.0339 0.13817 0.0472 0.13705 0.0601 0.13563 0.0729 0.13449 0.0856 0.1328 0.0977 0.13166 0.1101 0.13025 0.12225 0.12827 0.13383 0.12713 0.14568 0.12515 0.15669 0.12346 0.16827 0.12146 0.17899 0.11977 0.18999 0.1178 0.20075 0.1158 0.21089 0.11383 0.22106 0.11156 0.23123 0.10929 0.24111 0.10704 0.25042 0.10505 0.26002 0.10249 0.26935 0.1 0.27808 0.0974 0.28713 0.0951 0.29559 0.0923 0.30406 0.0895 0.31254 0.0869 0.32015 0.0841 0.32806 0.0813 0.3357 0.0781 0.34333 0.0753 0.35033 0.0722 0.35746 0.0691 0.36418 0.0657 0.37069 0.0626 0.37718 0.0595 0.38343 0.0558 0.38958 0.0527 0.39526 0.049 0.40091 0.0453 0.40628 0.0419 0.41164 0.0383 0.41642 0.0343 0.42152 0.0306 0.42603 0.0266 0.43027 0.0229 0.43479 0.0187 0.43872 0.0147 0.44243 0.0105 0.44607 7e-3 0.44946 2e-3 0.44975-2e-3 0.44607-7e-3 0.44241-0.0105 0.43872-0.0147 0.4345-0.0187 0.43056-0.0229 0.42602-0.0266 0.42123-0.0306 0.41671-0.0343 0.41136-0.0383 0.40653-0.0419 0.40091-0.0453 0.39525-0.049 0.38934-0.0527 0.3834-0.0558 0.37747-0.0595 0.3707-0.0626 0.3642-0.0657 0.35743-0.0691 0.35036-0.0722 0.34302-0.0753 0.33569-0.0781 0.32834-0.0813 0.32019-0.0841 0.31223-0.0869 0.30407-0.0895 0.2956-0.0923 0.2871-0.0951 0.2784-0.0974 0.26904-0.1 0.26001-0.10249 0.25074-0.10505 0.24111-0.10704 0.23093-0.10929 0.22133-0.11156c0.0984-0.0531 0.16873-0.0911 0.21093-0.11383 0.0402-0.0231 0.10688-0.0618 0.20042-0.1158 0.0887-0.055 0.152-0.0942 0.19002-0.1178 0.0359-0.024 0.0956-0.0639 0.17927-0.11977 0.0785-0.0567 0.13438-0.0972 0.16799-0.12146 0.0314-0.0247 0.0837-0.0658 0.15699-0.12346 0.068-0.0584 0.11653-0.10012 0.14566-0.12515 0.0268-0.0254 0.0714-0.0678 0.13383-0.12713 0.0569-0.0598 0.0975-0.10261 0.122-0.12827 0.0222-0.0261 0.0586-0.0694 0.11014-0.13025 0.0196-0.0263 0.0521-0.0702 0.098-0.13166 0.04-0.0619 0.0682-0.10624 0.0855-0.1328 0.0145-0.0269 0.0388-0.0717 0.0728-0.13449 0.0281-0.0633 0.0481-0.1085 0.06-0.13563 0.01-0.0274 0.0251-0.0731 0.0473-0.13705 7e-3 -0.0276 0.0182-0.0737 0.034-0.13817 0.01-0.065 0.0161-0.11145 0.02-0.13931 3e-3 -0.028 4e-3 -0.0749 7e-3 -0.14044z" fill="#333" fill-rule="evenodd" stroke="#bfbfbf" stroke-linecap="square" stroke-width="2.1746"/>
    <path d="m-154.42 91.976a11.196 2.1065 0 0 1-7.0619-1.1945 11.196 2.1065 0 0 1 0.35481-1.7855" fill="none" stroke="#d9d9d9" stroke-dasharray="4.41579625, 2.20789813, 1.10394906, 2.20789813, 1.10394906, 2.20789813" stroke-linecap="round" stroke-width="1.1039"/>
   </g>
   <g fill="#e6e6e6" fill-rule="evenodd">
    <g stroke-opacity="0">
     <path d="m-151.4 53.541c1.1476 2.5538 1.5664 4.4653 1.2562 5.7346-0.46525 1.904-1.0236 1.6773-1.675 3.4-0.43422 1.1484-0.83746 2.1911-1.2097 3.128-0.80644-2.448-1.0468-4.1706-0.72115-5.168 0.49856-1.5267 0.96228-1.5414 1.6052-3.1733 0.49107-1.2466 0.48852-1.3827 0.74441-3.9213z"/>
     <path d="m-150.36 69.263c1.236 2.1726 2.7371 4.1412 2.6751 5.9092-0.0582 1.6582-0.93452 2.7285-1.6882 4.1414-0.75369 1.4129-0.60536 3.2368-0.74023 4.4742-1.6999-2.1176-2.4733-4.4837-2.1549-5.7573 0.31837-1.2736 0.82907-2.1084 1.4804-3.7834 0.65136-1.675 0.35791-2.495 0.42771-4.9842z"/>
     <path d="m-155.14 59.016c-1.0201 2.5773-2.6967 7.3996-2.2155 9.1905 0.48209 1.7943 1.3746 2.6666 2.21 4.2386 0.83385 1.5692 0.60886 4.467 0.61414 5.9804 2.0377-2.4291 3.3403-5.4637 3.0267-7.3728-0.23598-1.4362-1.9681-3.2209-2.6648-5.0647-0.7346-1.9442-0.82552-4.0831-0.97051-6.972z"/>
    </g>
    <rect x="-332.77" y="127.16" width="4.5961" height="4.937" stroke="#e6e6e6" stroke-linecap="square" stroke-linejoin="round" stroke-width=".65878"/>
    <rect x="-323" y="129.34" width="34.269" height=".30474" stroke="#e6e6e6" stroke-linecap="square" stroke-linejoin="round" stroke-width="1.0228"/>
   </g>
   <rect x="-332.77" y="136.79" width="4.5961" height="4.937" fill="none" stroke="#e6e6e6" stroke-linecap="square" stroke-linejoin="round" stroke-width=".65878"/>
   <path d="m-331.85 129.64c0.43827 0.27276 0.87653 0.73176 1.3148 1.4594 0.41046-1.1492 0.95272-2.1852 1.6889-3.0545" fill="none" stroke="#6cadc6" stroke-linecap="round" stroke-linejoin="round" stroke-width="1.0642"/>
   <g fill-rule="evenodd">
    <rect x="-323.02" y="139.27" width="34.136" height=".22692" fill="#e6e6e6" stroke="#e6e6e6" stroke-linecap="square" stroke-linejoin="round" stroke-width="1.0512"/>
    <rect x="-322.64" y="116.58" width="23.887" height="1.1074" fill="#ccc" stroke="#ccc" stroke-linejoin="round" stroke-width=".8648"/>
    <g stroke-linecap="square">
     <ellipse cx="-310.69" cy="117.67" rx="11.968" ry="2.1074" fill="#ccc" stroke="#ccc" stroke-linejoin="bevel" stroke-width=".79793"/>
     <ellipse cx="-310.69" cy="116.69" rx="11.968" ry="2.1074" fill="#e6e6e6" stroke="#e6e6e6" stroke-linejoin="bevel" stroke-width=".79793"/>
     <rect x="-311.96" y="106.03" width="3.3945" height="10.361" fill="#bfbfbf" stroke="#bfbfbf" stroke-linejoin="round" stroke-width=".76951"/>
     <rect x="-332.86" y="71.983" width="45.498" height="35.86" rx=".47668" ry=".57015" fill="#bfbfbf" stroke="#bfbfbf" stroke-linejoin="bevel" stroke-width="1.0089"/>
    </g>
   </g>
   <rect x="-329.91" y="74.487" width="39.315" height="30.228" rx="2.5684e-6" ry="2.7589e-6" fill="#333" stroke="#333" stroke-linecap="square" stroke-linejoin="bevel" stroke-width="1.0089"/>
   <g fill-rule="evenodd" stroke-linecap="square">
    <path d="m-332.78 72.041h45.065v34.649h-45.065-1e-5v-34.649h1e-5m2.3344 1.9945h40.396v30.555h-40.396v-30.555" fill="#e6e6e6" stroke="#e6e6e6" stroke-linejoin="bevel" stroke-width="1.0089"/>
    <rect x="-312.09" y="105.84" width="2.8934" height="10.777" fill="#e6e6e6" stroke="#e6e6e6" stroke-miterlimit="1.92" stroke-width=".74101"/>
    <g stroke-linejoin="round">
     <g stroke-width="1.0089">
      <rect x="-327.75" y="76.824" width="20.117" height=".50343" fill="#a64848" stroke="#a64848"/>
      <rect x="-327.73" y="79.543" width="13.569" height=".45625" fill="#307679" stroke="#4c7e7e"/>
      <rect x="-327.68" y="82.192" width="18.384" height=".55707" fill="#815681" stroke="#7c547c"/>
     </g>
     <g stroke-width="1.1289">
      <rect x="-327.56" y="84.982" width="25.191" height=".59373" fill="#a64848" stroke="#bd6e6e"/>
      <rect x="-327.58" y="90.509" width="16.992" height=".58527" fill="#307679" stroke="#4c7e7e"/>
      <rect x="-327.62" y="87.678" width="23.021" height=".60864" fill="#815681" stroke="#7c547c"/>
     </g>
     <rect x="-327.8" y="93.106" width="16.06" height=".50343" fill="#a64848" stroke="#a64848" stroke-width="1.0089"/>
     <rect x="68.506" y="90.936" width="40.352" height="9.1712" fill="#4c4c4c" stroke="#4c4c4c" stroke-width="1.371"/>
    </g>
   </g>
   <rect x="69.94" y="92.123" width="37.272" height="7.6498" fill="none" stroke="#bd6e6e" stroke-linecap="square" stroke-linejoin="round" stroke-width=".59315"/>
   <ellipse cx="106.26" cy="101.9" rx="9.023" ry="2.6683" fill="#e6e6e6" stroke="#bfbfbf" stroke-linecap="square" stroke-linejoin="bevel" stroke-width="1.3474"/>
   <g fill-rule="evenodd" stroke-linecap="square">
    <path d="m115.32 103.93-48.037-2.6489-6.596 24.062 47.973 3.1922z" fill="#8c8c8c" stroke="#4c4c4c" stroke-linejoin="bevel" stroke-width="1.5026"/>
    <path d="m114.2 107.39-46.958-2.6778-6.2442 22.474 46.899 3.1856z" fill="#333" stroke="#4c4c4c" stroke-linejoin="bevel" stroke-width="1.4363"/>
    <path d="m113.6 103.09c-7.1868-4.2832-14.775-3.9547-22.544-1.5644l-6.7233 24.141c8.1695-3.5896 15.703-3.1864 22.544 1.5644z" fill="#8c8c8c" stroke="#b2b2b2" stroke-linejoin="round" stroke-width="1.7698"/>
   </g>
   <path d="m90.641 101.5c-6.7174-4.2506-13.886-3.893-21.256-1.475l-6.7234 24.141c7.7679-3.6175 14.873-3.244 21.256 1.4751z" fill="#8c8c8c" stroke="#b2b2b2" stroke-linecap="square" stroke-linejoin="round" stroke-width="1.7185"/>
   <path d="m115.49 101.09c-7.7304-4.6248-15.898-4.2678-24.262-1.6836l-7.2632 26.08c8.7968-3.8798 16.904-3.4464 24.262 1.6836z" fill="#666" fill-rule="evenodd" stroke="#404040" stroke-linecap="square" stroke-linejoin="round" stroke-width=".95415"/>
   <g fill="#e6e6e6" stroke-linecap="square" stroke-linejoin="round">
    <path d="m91.006 99.588c-7.2294-4.5746-14.944-4.1897-22.877-1.5875l-7.2358 25.982c8.36-3.8932 16.007-3.4913 22.877 1.5875z" stroke="#404040" stroke-width=".92476"/>
    <path d="m115.47 101.91c-7.7346-4.6097-15.902-4.2561-24.262-1.6836l-7.2358 25.982c8.7922-3.8632 16.9-3.4293 24.262 1.6836z" fill-rule="evenodd" stroke="#e6e6e6" stroke-width=".95235"/>
    <path d="m90.754 100.2c-7.2294-4.5746-14.944-4.1897-22.877-1.5875l-7.2358 25.982c8.36-3.8932 16.007-3.4912 22.877 1.5875z" stroke="#e6e6e6" stroke-width=".92476"/>
   </g>
   <path d="m90.939 100.49-7.3076 25.417" fill="#f2f2f2" fill-rule="evenodd" stroke="#d9d9d9" stroke-linecap="round" stroke-linejoin="bevel" stroke-width=".76428"/>
   <path d="m84.002 124.99c0.12938-0.0553 1.719-7.5568 3.5925-14.494 1.0535-3.9009 2.2096-7.8031 3.4684-11.707l1.9758-0.50059c-1.1726 4.8998-2.1447 8.7452-2.9161 11.536-1.8931 6.8494-2.9155 14.164-2.6611 14.084 0.0697 2.4501-6e-3 4.0462-0.22705 4.7882-0.22113 0.74189-1.1306 2.1121-2.7284 4.1102l-0.33763-1.9307c-0.51227 0.33472-2.8202 1.2187-3.2931 1.5277 2.1954-2.3195 3.2931-3.7602 3.2931-4.3222 0-0.8431 0.11592-1.6699-0.16633-3.0926z" fill="#6cadc6" fill-rule="evenodd" stroke-miterlimit="1.92" stroke-opacity="0"/>
   <g fill="#e6e6e6" stroke="#e6e6e6">
    <path d="m99.175 74.793h-2.3831v5.7809h2.3831s1.0394-0.6216 1.0394-2.9164-1.0394-2.8645-1.0394-2.8645zm-4.2439 0h-21.815v5.7809h21.815v-5.7809m-23.675 0h-2.5883v5.7809h2.5883v-5.7809" fill-rule="evenodd" stroke-linecap="square" stroke-linejoin="round" stroke-width=".67315"/>
    <path transform="matrix(0 .62158 -.62983 0 -238.57 -181.71)" d="m357.48-80.703h-14.958l7.4788-12.954z" stroke-miterlimit="3" stroke-width=".47655" style="paint-order:markers fill stroke"/>
    <path transform="matrix(0 -.62158 .62983 0 -129.21 387.46)" d="m357.48-80.703h-14.958l7.4788-12.954z" stroke-miterlimit="3" stroke-width=".47655" style="paint-order:markers fill stroke"/>
   </g>
   <path d="m103.1 81.727h-34.828v7.8844h34.828s1.8663 0.24962 1.8663-3.7418-1.8663-4.1427-1.8663-4.1427z" fill="#4c4c4c" stroke="#4c4c4c" stroke-linecap="round" stroke-linejoin="round" stroke-width=".61699" style="paint-order:markers fill stroke"/>
  </g>
 </g>
</svg>
