<?xml version="1.0" standalone="no"?>
<!DOCTYPE svg PUBLIC "-//W3C//DTD SVG 20010904//EN" "http://www.w3.org/TR/2001/REC-SVG-20010904/DTD/svg10.dtd">
<!-- Created using Krita: http://krita.org -->
<svg xmlns="http://www.w3.org/2000/svg" 
    xmlns:xlink="http://www.w3.org/1999/xlink"
    xmlns:krita="http://krita.org/namespaces/svg/krita"
    xmlns:sodipodi="http://sodipodi.sourceforge.net/DTD/sodipodi-0.dtd"
    width="591.84pt"
    height="720pt"
    viewBox="0 0 591.84 720">
<defs/>
<rect id="shape0" transform="matrix(1.1676406259 0 0 1.0657267244 307.16693279 385.77485611)" fill="#4c4c4c" fill-rule="evenodd" stroke="#4c4c4c" stroke-width="6.48" stroke-linecap="square" stroke-linejoin="bevel" width="182.16" height="45.36"/><text id="shape01" transform="matrix(0.99999996558 0 0 0.99999996459 229.84998815 222.5999717)" fill="#f2f2f2" font-family="Lato" font-size="55" font-size-adjust="0.210526" text-anchor="middle"><tspan x="167.5">long break</tspan></text><text id="shape02" transform="matrix(0.99999994707 0 0 1.000000007 289.82994873 694.14000242)" fill="#000000" font-family="Lato" font-size="48" font-size-adjust="0.210526" font-weight="600"><tspan x="0">15 mins</tspan></text><text id="shape03" transform="matrix(0.99999992418 0 0 1.0000000243 312.79997629 71.400004416)" fill="#f2f2f2" font-family="Lato" font-size="60" font-size-adjust="0.210526"><tspan x="0">1 loop</tspan></text><rect id="shape1" transform="matrix(1.1676406259 0 0 1.3079373212 308.0076331 387.12241908)" fill="none" stroke="#f2f2f2" stroke-width="1.92" stroke-linecap="square" stroke-linejoin="round" width="180.24" height="34.56"/><rect id="shape2" transform="matrix(1.1676406259 0 0 1.3079373212 405.23466202 401.17197597)" fill="#f2f2f2" fill-rule="evenodd" stroke="#000000" stroke-opacity="0" stroke-width="6.48" stroke-linecap="square" stroke-linejoin="bevel" width="84.48" height="12.96"/><path id="shape011" transform="matrix(0.93475046469 0 0 1.2851774256 433.23397653 429.52527752)" sodipodi:type="arc" sodipodi:rx="50.879999495" sodipodi:ry="10.943777033" sodipodi:cx="50.879999495" sodipodi:cy="10.943777033" sodipodi:start="6.2831853072" sodipodi:end="6.2831853072" d="M101.76 10.9438C101.76 4.8997 78.9802 1.23388e-10 50.88 5.32907e-15C22.7798 -1.23377e-10 5.73626e-10 4.8997 0 10.9438C-5.73626e-10 16.9879 22.7798 21.8876 50.88 21.8876C78.9802 21.8876 101.76 16.9879 101.76 10.9438L50.88 10.9438Z" fill="#e6e6e6" stroke="#bfbfbf" stroke-width="6.48" stroke-linecap="square" stroke-linejoin="bevel"/><path id="shape3" transform="matrix(-1.1981808297 -0.11712755848 -0.23876319566 1.2235228692 528.59060762 454.26699664)" fill="#8c8c8c" fill-rule="evenodd" stroke="#4c4c4c" stroke-width="6.48" stroke-linecap="square" stroke-linejoin="bevel" d="M0 0L209.6 8.65315L217.804 113.099L8.02399 106.769Z"/><path id="shape04" transform="matrix(-1.1716772627 -0.11453671459 -0.2230873356 1.1431931731 522.67606237 472.5055588)" fill="#333333" fill-rule="evenodd" stroke="#4c4c4c" stroke-width="6.48" stroke-linecap="square" stroke-linejoin="bevel" d="M0 0L209.6 8.65315L217.804 113.099L8.02399 106.769Z"/><path id="shape0111" transform="matrix(-0.73241776237 -0.050825160006 -0.19327471022 0.69399158672 523.1507336 436.74401615)" fill="#8c8c8c" fill-rule="evenodd" stroke="#b2b2b2" stroke-width="12.96" stroke-linecap="square" stroke-linejoin="round" d="M0 18.8354C59.163 -9.36376 112.094 -2.99189 162.24 18.8354L162.24 202.195C111.619 171.224 57.6387 170.333 0 202.195Z"/><path id="shape021" transform="matrix(-0.69059725956 -0.047923087739 -0.1932747036 0.69399160324 402.12430558 428.36246394)" fill="#8c8c8c" stroke="#b2b2b2" stroke-width="12.96" stroke-linecap="square" stroke-linejoin="round" d="M0 18.8354C59.163 -9.36376 112.094 -2.99189 162.24 18.8354L162.24 202.195C111.619 171.224 57.6387 170.333 0 202.195Z"/><path id="shape031" transform="matrix(-0.78824234291 -0.054699040709 -0.20879383917 0.74971618544 533.39995726 425.19544556)" fill="#666666" fill-rule="evenodd" stroke="#404040" stroke-width="6.48" stroke-linecap="square" stroke-linejoin="round" d="M0 18.8354C59.163 -9.36376 112.094 -2.99189 162.24 18.8354L162.24 202.195C111.619 171.224 57.6387 170.333 0 202.195Z"/><path id="shape041" transform="matrix(-0.743234305 -0.051575773318 -0.20800602131 0.74688740536 404.32364833 417.30734819)" fill="#e6e6e6" stroke="#404040" stroke-width="6.48" stroke-linecap="square" stroke-linejoin="round" d="M0 18.8354C59.163 -9.36376 112.094 -2.99189 162.24 18.8354L162.24 202.195C111.619 171.224 57.6387 170.333 0 202.195Z"/><path id="shape4" transform="matrix(-0.78824233347 -0.054699039098 -0.20800602416 0.74688736445 533.24896778 429.55037695)" fill="#e6e6e6" fill-rule="evenodd" stroke="#e6e6e6" stroke-width="6.48" stroke-linecap="square" stroke-linejoin="round" d="M0 18.8354C59.163 -9.36376 112.094 -2.99189 162.24 18.8354L162.24 202.195C111.619 171.224 57.6387 170.333 0 202.195Z"/><path id="shape05" transform="matrix(-0.74323428968 -0.051575771719 -0.20800601703 0.74688738222 402.99795676 420.52998524)" fill="#e6e6e6" stroke="#e6e6e6" stroke-width="6.48" stroke-linecap="square" stroke-linejoin="round" d="M0 18.8354C59.163 -9.36376 112.094 -2.99189 162.24 18.8354L162.24 202.195C111.619 171.224 57.6387 170.333 0 202.195Z"/><path id="shape5" transform="matrix(-1.4172367892 0.16945332257 0.094355972328 1.3693119152 400.05453409 436.12577287)" fill="#f2f2f2" fill-rule="evenodd" stroke="#d9d9d9" stroke-width="2.88" stroke-linecap="round" stroke-linejoin="bevel" d="M0 0L33.4171 93.7039"/><path id="shape6" transform="matrix(1.4611126035 0 0 1.6366711317 347.01040964 424.5209448)" fill="#6cadc6" fill-rule="evenodd" stroke="#000000" stroke-opacity="0" stroke-width="0.96" stroke-linecap="square" stroke-linejoin="miter" stroke-miterlimit="1.9199999571" d="M11.28 85.994C11.7467 85.8161 17.4813 61.6567 24.24 39.314C28.0404 26.7508 32.2112 14.1835 36.7523 1.6122L43.88 0C39.6498 15.7801 36.1431 28.1647 33.36 37.154C26.5305 59.2129 22.8424 82.7698 23.76 82.514C24.0116 90.4048 23.7385 95.5451 22.9409 97.9347C22.1432 100.324 18.8623 104.737 13.098 111.172L11.88 104.954C10.032 106.032 1.70584 108.879 0 109.874C7.92 102.404 11.88 97.7642 11.88 95.954C11.88 93.2387 12.2982 90.576 11.28 85.994Z"/><path id="shape7" transform="matrix(1.1676406259 0 0 1.3079373212 336.71057496 337.43349524)" fill="#d9d9d9" fill-rule="evenodd" stroke="#d9d9d9" stroke-width="6.48" stroke-linecap="square" stroke-linejoin="bevel" d="M29.108 6L133.028 6L133.028 24.72L29.108 24.72L29.108 6M0 0L158.708 0L158.708 29.932L0 29.932L0 0M1.578 1.469L20.538 1.469L20.538 27.779L1.578 27.779L1.578 1.469"/><path id="shape8" transform="matrix(1.1676406259 0 0 1.3079373212 340.93243825 287.51999118)" fill="#4c4c4c" fill-rule="evenodd" stroke="#4c4c4c" stroke-width="6.24" stroke-linecap="square" stroke-linejoin="round" d="M0 0L10.758 0L10.758 29.932L0 29.932L0 0M19.158 0L117.634 0L117.634 29.932L19.158 29.932L19.158 0M126.034 0L137.718 0L137.718 29.932L126.034 29.932L126.034 0"/><path id="shape11" transform="matrix(0.99999995318 0 0 1 239.07998339 112.81754061)" fill="none" stroke="#e6e6e6" stroke-width="6.48" stroke-linecap="square" stroke-linejoin="miter" stroke-miterlimit="2" d="M0 31.6298L0 0.505907M0 0L315.636 0M315.84 31.8849L315.84 0.760987"/><path id="shape011" transform="matrix(0.99999996122 0 0 0.99999997235 5.3027658556 352.63792296)" fill="none" stroke="#e6e6e6" stroke-width="8.16" stroke-linecap="square" stroke-linejoin="miter" stroke-miterlimit="1.9199999571" d="M46.821 0L46.821 95.9075M0 47.8278L95.6572 47.8278"/>
</svg>
