<?xml version="1.0" standalone="no"?>
<!DOCTYPE svg PUBLIC "-//W3C//DTD SVG 20010904//EN" "http://www.w3.org/TR/2001/REC-SVG-20010904/DTD/svg10.dtd">
<!-- Created using Krita: http://krita.org -->
<svg xmlns="http://www.w3.org/2000/svg" 
    xmlns:xlink="http://www.w3.org/1999/xlink"
    xmlns:krita="http://krita.org/namespaces/svg/krita"
    xmlns:sodipodi="http://sodipodi.sourceforge.net/DTD/sodipodi-0.dtd"
    width="730.08pt"
    height="720pt"
    viewBox="0 0 730.08 720">
<defs/>
<text id="shape0" transform="matrix(1.0000000205 0 0 1.0000000278 494.82997501 694.14001686)" fill="#000000" font-family="Lato" font-size="48" font-size-adjust="0.210526" font-weight="600"><tspan x="0">5 mins</tspan></text><text id="shape01" transform="matrix(1.0000000196 0 0 0.99999999017 477.12999674 222.59997739)" fill="#f2f2f2" font-family="Lato" font-size="55" font-size-adjust="0.210526" text-anchor="middle"><tspan x="91.5">break</tspan></text><text id="shape0" transform="translate(59.119999687, 693.47999712)" fill="#000000" font-family="Lato" font-size="48" font-size-adjust="0.210526" font-weight="600"><tspan x="0">25 mins</tspan></text><text id="shape1" transform="translate(64.119996726, 222.43997972)" fill="#f2f2f2" font-family="Lato" font-size="55" font-size-adjust="0.210526" text-anchor="middle"><tspan x="82">work</tspan></text><text id="shape02" transform="translate(247.63999817, 71.400001354)" fill="#f2f2f2" font-family="Lato" font-size="60" font-size-adjust="0.210526"><tspan x="0">4 loops</tspan></text><rect id="shape7" transform="matrix(0.97428308149 0 0 0.97428312997 46.146989273 530.09889827)" fill="#e6e6e6" fill-rule="evenodd" stroke="#e6e6e6" stroke-width="3.12" stroke-linecap="square" stroke-linejoin="round" width="22.56" height="22.56"/><rect id="shape07" transform="matrix(0.82690527593 0 0 0.66034359643 93.233026939 540.12830507)" fill="#e6e6e6" fill-rule="evenodd" stroke="#e6e6e6" stroke-width="6.48" stroke-linecap="square" stroke-linejoin="round" width="206.99895696" height="2.0250884713"/><rect id="shape08" transform="matrix(0.97428306315 0 0 0.97428313698 46.14699081 572.97589549)" fill="none" stroke="#e6e6e6" stroke-width="3.12" stroke-linecap="square" stroke-linejoin="round" width="22.56" height="22.56"/><path id="shape8" transform="matrix(0.97428308149 0 0 0.97428312997 50.547428743 534.01552981)" fill="none" stroke="#6cadc6" stroke-width="5.04" stroke-linecap="round" stroke-linejoin="round" d="M0 7.28915C2.1512 8.53558 4.3024 10.633 6.45359 13.9579C8.46832 8.70641 11.13 3.97253 14.7434 0"/><rect id="shape09" transform="matrix(0.82690529431 0 0 0.66034360609 93.054738635 583.65931648)" fill="#e6e6e6" fill-rule="evenodd" stroke="#e6e6e6" stroke-width="6.48" stroke-linecap="square" stroke-linejoin="round" width="173.45594325" height="1.696934304"/><rect id="shape010" transform="matrix(0.81223358878 0 0 0.46686786442 95.899687286 474.07724645)" fill="#cccccc" fill-rule="evenodd" stroke="#cccccc" stroke-width="6.48" stroke-linecap="butt" stroke-linejoin="round" width="140.6399955" height="10.559999662"/><ellipse id="shape0111" transform="matrix(0.7494268392 0 0 0.43076684318 95.781559817 469.54128091)" rx="76.370896347" ry="21.779993947" cx="76.370896347" cy="21.779993947" fill="#cccccc" fill-rule="evenodd" stroke="#cccccc" stroke-width="6.48" stroke-linecap="square" stroke-linejoin="bevel"/><ellipse id="shape11" transform="matrix(0.74942683058 0 0 0.43076684932 95.781560475 465.16776622)" rx="76.370896347" ry="21.779993947" cx="76.370896347" cy="21.779993947" fill="#e6e6e6" fill-rule="evenodd" stroke="#e6e6e6" stroke-width="6.48" stroke-linecap="square" stroke-linejoin="bevel"/><rect id="shape21" transform="matrix(0.48661223933 0 0 0.61700552274 146.95779341 427.09958407)" fill="#bfbfbf" fill-rule="evenodd" stroke="#bfbfbf" stroke-width="6.48" stroke-linecap="square" stroke-linejoin="round" width="33.359996815" height="74.759999157"/><rect id="shape31" transform="matrix(0.71837227817 0 0 0.71837235674 47.024001425 275.51999777)" fill="#bfbfbf" fill-rule="evenodd" stroke="#bfbfbf" stroke-width="6.48" stroke-linecap="square" stroke-linejoin="bevel" width="302.88" height="222.24" rx="3.1732817812" ry="3.5334709232"/><rect id="shape01111" transform="matrix(0.71837224327 0 0 0.71837240376 61.118464887 286.66715702)" fill="#333333" stroke="#333333" stroke-width="6.48" stroke-linecap="square" stroke-linejoin="bevel" width="261.72001449" height="187.33643143" rx="1.7097802381e-05" ry="1.7097802381e-05"/><path id="shape41" transform="matrix(0.71837227817 0 0 0.71837235674 47.368820111 275.7780716)" fill="#e6e6e6" fill-rule="evenodd" stroke="#e6e6e6" stroke-width="6.48" stroke-linecap="square" stroke-linejoin="bevel" d="M1.95986e-5 0L300 0L300 5.74029e-6L300 1.95986e-5L300 214.737C300 214.737 300 214.737 300 214.737C300 214.737 300 214.737 300 214.737C240 214.737 140 214.737 1.95986e-5 214.737L5.74029e-6 214.737L0 214.737L0 1.95986e-5L5.74029e-6 5.74029e-6L1.95986e-5 0M15.54 12.3608L284.46 12.3608L284.46 12.3608L284.46 12.3608L284.46 201.721L284.46 201.721L284.46 201.721L15.54 201.721L15.54 201.721L15.54 201.721L15.54 12.3608L15.54 12.3608L15.54 12.3608"/><rect id="shape021" transform="matrix(0.48661222405 0 0 0.61700552565 146.34680054 426.24343396)" fill="#e6e6e6" fill-rule="evenodd" stroke="#e6e6e6" stroke-width="6.24" stroke-linecap="square" stroke-linejoin="miter" stroke-miterlimit="1.9199999571" width="28.435603194" height="77.76"/><rect id="shape51" transform="matrix(0.71837227817 0 0 0.71837235674 71.419923881 297.07116847)" fill="#a64848" fill-rule="evenodd" stroke="#a64848" stroke-width="6.48" stroke-linecap="square" stroke-linejoin="round" width="133.92" height="3.1199933782"/><rect id="shape031" transform="matrix(0.71837229584 0 0 0.71837235207 71.526541823 309.17747307)" fill="#307679" fill-rule="evenodd" stroke="#4c7e7e" stroke-width="6.48" stroke-linecap="square" stroke-linejoin="round" width="90.33156511" height="2.827583591"/><rect id="shape041" transform="matrix(0.71837229713 0 0 0.71837235476 71.777661833 320.96967618)" fill="#815681" fill-rule="evenodd" stroke="#7c547c" stroke-width="6.48" stroke-linecap="square" stroke-linejoin="round" width="122.38201267" height="3.4524142493"/><rect id="shape051" transform="matrix(0.89957088541 0 0 0.71837237415 72.32555779 333.3923701)" fill="#a64848" fill-rule="evenodd" stroke="#bd6e6e" stroke-width="6.48" stroke-linecap="square" stroke-linejoin="round" width="133.92" height="3.679579059"/><rect id="shape061" transform="matrix(0.89957090754 0 0 0.71837236947 72.243171512 357.99835333)" fill="#307679" fill-rule="evenodd" stroke="#4c7e7e" stroke-width="6.48" stroke-linecap="square" stroke-linejoin="round" width="90.33156511" height="3.6271686879"/><rect id="shape012" transform="matrix(0.89957090916 0 0 0.71837237218 72.040404757 345.39463279)" fill="#815681" fill-rule="evenodd" stroke="#7c547c" stroke-width="6.48" stroke-linecap="square" stroke-linejoin="round" width="122.38201267" height="3.7719992987"/><rect id="shape511" transform="matrix(0.71837229927 0 0 0.71837234289 71.20382418 369.56045461)" fill="#a64848" fill-rule="evenodd" stroke="#a64848" stroke-width="6.48" stroke-linecap="square" stroke-linejoin="round" width="106.91020084" height="3.1199933782"/><path id="shape01" transform="matrix(1.258092285 0 0 1.7663081494 507.70452766 546.31425855)" sodipodi:type="arc" sodipodi:rx="51.339064742" sodipodi:ry="13.940302064" sodipodi:cx="51.339064742" sodipodi:cy="13.940302064" sodipodi:start="6.2831853072" sodipodi:end="2.0413892798e-11" d="M102.678 13.9403C102.678 6.24129 79.6928 1.57177e-10 51.3391 0C22.9853 -1.57177e-10 5.78821e-10 6.24129 0 13.9403C-5.78821e-10 21.6393 22.9853 27.8806 51.3391 27.8806C79.6928 27.8806 102.678 21.6393 102.678 13.9403L51.3391 13.9403Z" fill="#e6e6e6" stroke="#bfbfbf" stroke-width="6.48" stroke-linecap="square" stroke-linejoin="bevel"/><path id="shape03" transform="matrix(1.2434429469 0 0 1.292287808 507.70452766 428.24627354)" fill="#e6e6e6" fill-rule="evenodd" stroke="#e6e6e6" stroke-width="6.48" stroke-linecap="square" stroke-linejoin="bevel" d="M103.612 0C103.869 50.8939 104.054 87.2467 104.164 109.058C98.1545 121.821 80.7813 128.381 51.6676 128.142C22.5539 127.902 5.39622 122.037 0 109.058C0 87.2467 1.89478e-14 50.8939 5.68434e-14 2.84217e-14"/><path id="shape2" transform="matrix(-0.0079539494295 -1.082293643 1.2541694358 -0.0068639122109 637.42790263 543.94672089)" sodipodi:type="arc" sodipodi:rx="31.850874853" sodipodi:ry="19.799488272" sodipodi:cx="31.804025059" sodipodi:cy="-4.0417189489e-10" sodipodi:start="6.2831853072" sodipodi:end="3.0873474421" sodipodi:open="true" d="M0 1.0735C0.935506 11.7835 15.4198 20.0831 32.6678 19.7922C49.9158 19.5013 63.6549 10.7258 63.6549 8.77517e-17" fill="none" stroke="#cccccc" stroke-width="14.4" stroke-linecap="round" stroke-linejoin="bevel"/><path id="shape211" transform="matrix(-0.013442993835 -1.0822636181 1.2541694986 -0.006863912312 637.88740105 546.93187184)" sodipodi:type="arc" sodipodi:rx="34.614442046" sodipodi:ry="22.320643625" sodipodi:cx="34.563527291" sodipodi:cy="-4.5563686824e-10" sodipodi:start="6.2831853072" sodipodi:end="3.0873474421" sodipodi:open="true" d="M0 1.21019C1.01668 13.284 16.7577 22.6403 35.5022 22.3124C54.2468 21.9845 69.178 12.0916 69.178 6.66439e-18" fill="none" stroke="#e6e6e6" stroke-width="14.4" stroke-linecap="square" stroke-linejoin="bevel"/><path id="shape1" transform="matrix(1.2528320744 0 0 1.2528320744 508.24903641 404.51344325)" fill="#333333" fill-rule="evenodd" stroke="#bfbfbf" stroke-width="7.68" stroke-linecap="square" stroke-linejoin="bevel" d="M101.943 15.916C101.939 15.8168 101.931 15.6515 101.919 15.42C101.886 15.1904 101.862 15.0264 101.848 14.928C101.824 14.8304 101.784 14.6677 101.728 14.44C101.65 14.2146 101.595 14.0536 101.561 13.957C101.519 13.861 101.448 13.701 101.349 13.477L101.092 13.003L100.79 12.533L100.444 12.068L100.055 11.609L99.6241 11.155L99.1515 10.707L98.637 10.265L98.0826 9.829L97.4893 9.399L96.8562 8.976L96.1851 8.56L95.4772 8.152L94.7323 7.75L93.9506 7.356L93.135 6.969L92.2835 6.591L91.398 6.221L90.4797 5.859L89.5295 5.506L88.5463 5.161L87.5323 4.826L86.4883 4.5L85.4144 4.183L84.3117 3.876L83.1809 3.58L82.0213 3.293L80.8358 3.016L79.6243 2.751L78.3869 2.496L77.1246 2.252L75.8383 2.019L74.5291 1.798L73.196 1.588L71.8419 1.391L70.4669 1.205L69.071 1.032L67.6551 0.872L66.2193 0.724L64.7665 0.59L63.2948 0.468L61.8071 0.36L60.3025 0.266L58.7819 0.186L57.2474 0.119L55.6979 0.067L54.1355 0.03L52.5601 0.007L50.9717 0L49.3843 0.007L47.8089 0.03L46.2464 0.067L44.6969 0.119L43.1614 0.186L41.6418 0.266L40.1372 0.36L38.6485 0.468L37.1778 0.59L35.724 0.724L34.2892 0.872L32.8733 1.032L31.4774 1.205L30.1014 1.391L28.7473 1.588L27.4152 1.798L26.106 2.019L24.8198 2.252L23.5574 2.496L22.3201 2.751L21.1076 3.016L19.922 3.293L18.7634 3.58L17.6327 3.876L16.5289 4.183L15.455 4.5L14.4111 4.826L13.397 5.161L12.4149 5.506L11.4636 5.859L10.5453 6.221L9.66089 6.591L8.80937 6.969L7.99274 7.356L7.21201 7.75L6.46718 8.152L5.75824 8.56L5.0872 8.976L4.45504 9.399L3.86077 9.829L3.30738 10.265L2.79287 10.707L2.32025 11.155L1.8885 11.609L1.49964 12.068L1.15464 12.533L0.852519 13.003L0.595268 13.477L0.382886 13.957L0.21637 14.44L0.0967186 14.928L0.0249275 15.42L0 15.916L0.0249275 16.412L0.0967186 16.904L0.21637 17.392L0.382886 17.876L0.595268 18.355L0.852519 18.83L1.15464 19.299L1.49964 19.764L1.8885 20.224L2.32025 20.677L2.79287 21.126L3.30738 21.568L3.86077 22.004L4.45504 22.433L5.0872 22.856L5.75824 23.272L6.46718 23.681L7.21201 24.083L7.99274 24.477L8.80937 24.863L9.66089 25.241L10.5453 25.612L11.4636 25.974L12.4149 26.327L13.397 26.671L14.4111 27.007L15.455 27.333L16.5289 27.649L17.6327 27.956L18.7634 28.253L19.922 28.54L21.1076 28.816L22.3201 29.082L23.5574 29.337L24.8198 29.581L26.106 29.813L27.4152 30.034L28.7473 30.244L30.1014 30.441L31.4774 30.627L32.8733 30.8L34.2892 30.96L35.724 31.108L37.1778 31.243L38.6485 31.364L40.1372 31.472L41.6418 31.566L43.1614 31.647L44.6969 31.713L46.2464 31.765L47.8089 31.802L49.3843 31.825L50.9717 31.832L52.5601 31.825L54.1355 31.802L55.6979 31.765L57.2474 31.713L58.7819 31.647L60.3025 31.566L61.8071 31.472L63.2948 31.364L64.7665 31.243L66.2193 31.108L67.6551 30.96L69.071 30.8L70.4669 30.627L71.8419 30.441L73.196 30.244L74.5291 30.034L75.8383 29.813L77.1246 29.581L78.3869 29.337L79.6243 29.082L80.8358 28.816L82.0213 28.54L83.1809 28.253L84.3117 27.956L85.4144 27.649L86.4883 27.333L87.5323 27.007L88.5463 26.671L89.5295 26.327L90.4797 25.974L91.398 25.612L92.2835 25.241L93.135 24.863L93.9506 24.477L94.7323 24.083C95.0799 23.8954 95.3282 23.7614 95.4772 23.681C95.6188 23.5992 95.8547 23.4629 96.1851 23.272C96.4983 23.0779 96.7219 22.9392 96.8562 22.856C96.9828 22.7714 97.1938 22.6304 97.4893 22.433C97.7662 22.2328 97.9639 22.0898 98.0826 22.004C98.1935 21.9168 98.3783 21.7715 98.637 21.568C98.8771 21.3617 99.0486 21.2144 99.1515 21.126C99.246 21.0362 99.4035 20.8865 99.6241 20.677C99.8251 20.4656 99.9687 20.3146 100.055 20.224C100.133 20.132 100.262 19.9787 100.444 19.764C100.513 19.671 100.628 19.516 100.79 19.299C100.931 19.0801 101.031 18.9238 101.092 18.83C101.143 18.735 101.229 18.5767 101.349 18.355C101.448 18.1315 101.519 17.9718 101.561 17.876C101.595 17.7792 101.65 17.6179 101.728 17.392C101.752 17.2944 101.792 17.1317 101.848 16.904C101.881 16.6744 101.905 16.5104 101.919 16.412C101.924 16.3128 101.932 16.1475 101.943 15.916Z"/><path id="shape3" transform="matrix(1.2528320744 0 0 1.0204635008 521.25926168 419.85776999)" sodipodi:type="arc" sodipodi:rx="39.540097191" sodipodi:ry="9.1337981824" sodipodi:cx="39.540113086" sodipodi:cy="4.1799443667" sodipodi:start="1.8650850165" sodipodi:end="3.6169259846" sodipodi:open="true" d="M4.38342 0C-0.985916 2.40983 -1.44499 5.24603 3.13032 7.74175C7.70563 10.2375 16.8428 12.1349 28.0711 12.9211" fill="none" stroke="#d9d9d9" stroke-width="4.32" stroke-linecap="round" stroke-linejoin="bevel" stroke-dasharray="17.28,8.64,4.32,8.64,4.32,8.64"/><path id="shape2" transform="matrix(0.95433335774 0 0 0.95433335774 560.49357809 251.99999886)" fill="#e6e6e6" fill-rule="evenodd" stroke="#000000" stroke-opacity="0" stroke-width="71.10955656" stroke-linecap="square" stroke-linejoin="bevel" d="M12.8449 0C18.7649 13.52 20.9249 23.64 19.3249 30.36C16.9249 40.44 14.0449 39.24 10.6849 48.36C8.44493 54.44 6.36492 59.96 4.44489 64.92C0.284921 51.96 -0.955065 42.84 0.724935 37.56C3.29667 29.4774 5.68864 29.3998 9.00493 20.76C11.5381 14.1605 11.5249 13.44 12.8449 0Z"/><path id="shape04" transform="matrix(0.95433335011 0 0 0.95433335039 568.16708736 332.62021909)" fill="#e6e6e6" fill-rule="evenodd" stroke="#000000" stroke-opacity="0" stroke-width="71.10955656" stroke-linecap="square" stroke-linejoin="bevel" d="M10.2049 0C16.5807 11.2072 24.3242 21.3619 24.0042 30.4819C23.7041 39.0353 19.1837 44.5565 15.296 51.8451C11.4083 59.1336 12.1734 68.542 11.4776 74.925C2.70897 64.0015 -1.28046 51.7962 0.361899 45.2265C2.00425 38.6568 4.63867 34.3504 7.99865 25.7104C11.3586 17.0704 9.84485 12.84 10.2049 0Z"/><path id="shape05" transform="matrix(-0.94457167489 0.13614858932 0.1361485921 0.94457169415 563.28794092 278.3711378)" fill="#e6e6e6" fill-rule="evenodd" stroke="#000000" stroke-opacity="0" stroke-width="71.10955656" stroke-linecap="square" stroke-linejoin="bevel" d="M9.4716 0C16.6262 12.7544 28.8287 36.7894 27.7246 46.5276C26.6184 56.2846 22.7203 61.5121 19.6425 70.3644C16.5704 79.2006 19.9078 94.2198 21.0238 102.154C8.78556 90.9251 -0.157413 75.9825 0.00210042 65.7479C0.122103 58.0484 7.61794 47.422 9.78234 37.2476C12.0646 26.5191 10.9133 15.2447 9.4716 0Z"/><path id="shape11" transform="translate(66.24, 112.81753988)" fill="none" stroke="#e6e6e6" stroke-width="6.48" stroke-linecap="square" stroke-linejoin="miter" stroke-miterlimit="2" d="M0 31.6298L0 0.505907M0 0L597.396 0M597.6 31.8849L597.6 0.760987"/>
</svg>
